HIERARCHY
ROOT Hips
{
  OFFSET 0 0 0
  CHANNELS 6 Xposition Yposition Zposition Zrotation Yrotation Xrotation
  JOINT LeftThigh
  {
    OFFSET 8.409438 0 -5.917753
    CHANNELS 3 Zrotation Yrotation Xrotation
    JOINT LeftLeg
    {
      OFFSET 0 0 -42.358652
      CHANNELS 3 Zrotation Yrotation Xrotation
      JOINT LeftFoot
      {
        OFFSET 0 0 -39.357303
        CHANNELS 3 Zrotation Yrotation Xrotation
      }
    }
  }
  JOINT RightThigh
  {
    OFFSET -8.409438 0 -5.917753
    CHANNELS 3 Zrotation Yrotation Xrotation
    JOINT RightLeg
    {
      OFFSET 0 0 -42.358652
      CHANNELS 3 Zrotation Yrotation Xrotation
      JOINT RightFoot
      {
        OFFSET 0 0 -39.357303
        CHANNELS 3 Zrotation Yrotation Xrotation
      }
    }
  }
  JOINT SpineLow
  {
    OFFSET 0 0 4.719101
    CHANNELS 3 Zrotation Yrotation Xrotation
    JOINT SpineMid
    {
      OFFSET 0 0 12.899191
      CHANNELS 3 Zrotation Yrotation Xrotation
      JOINT Chest
      {
        OFFSET 0 0 12.899191
        CHANNELS 3 Zrotation Yrotation Xrotation
        JOINT LeftShoulder
        {
          OFFSET 7.550562 1.41573 9.438202
          CHANNELS 3 Zrotation Yrotation Xrotation
          JOINT LeftArm
          {
            OFFSET 9.155056 0 4.247191
            CHANNELS 3 Zrotation Yrotation Xrotation
            JOINT LeftForearm
            {
              OFFSET 0 0 25.771955
              CHANNELS 3 Zrotation Yrotation Xrotation
              JOINT LeftHand
              {
                OFFSET 0 0 25.197169
                CHANNELS 3 Zrotation Yrotation Xrotation
              }
            }
          }
        }
        JOINT RightShoulder
        {
          OFFSET -7.550562 1.41573 9.438202
          CHANNELS 3 Zrotation Yrotation Xrotation
          JOINT RightArm
          {
            OFFSET -9.155056 0 4.247191
            CHANNELS 3 Zrotation Yrotation Xrotation
            JOINT RightForearm
            {
              OFFSET 0 0 -25.771955
              CHANNELS 3 Zrotation Yrotation Xrotation
              JOINT RightHand
              {
                OFFSET 0 0 -25.197169
                CHANNELS 3 Zrotation Yrotation Xrotation
              }
            }
          }
        }
        JOINT Neck
        {
          OFFSET 0 0 15.101124
          CHANNELS 3 Zrotation Yrotation Xrotation
          JOINT Head
          {
            OFFSET 0 0 11.325843
            CHANNELS 3 Zrotation Yrotation Xrotation
            End Site
            {
              OFFSET 0 0 14.157303
            }
          }
        }
      }
    }
  }
}
MOTION
Frames: 10
Frame Time: 0.0
0.0  101.685394  0.0  -1.606807  -43.551737  -101.382736  30.500794  -32.601107  -35.122734  13.090226  12.014285  73.097096  0.114273  6.252628  1.054978  14.262353  18.423065  3.583993  -6.4509  8.118158  29.722938  6.70306  9.168598  -4.044126  -0.079781  0.081501  3.409257  -0.206104  0.233498  9.318618  -0.206104  0.233498  9.318618  -3.942009  21.866361  -0.8521  -122.646812  58.269032  -99.197163  -27.545467  -14.715723  95.869008  112.373314  26.292869  -18.067743  3.374681  -10.007885  12.27531  87.801724  20.706503  39.296963  13.702503  10.853752  -84.265474  43.533739  -5.168121  18.430254  10.077286  -0.712992  -3.453445  7.554127  -0.59191  -2.579123  
0.0  101.685394  0.0  -1.156643  -43.044265  -101.853912  30.099883  -32.618784  -34.53722  13.432319  11.72781  72.726174  -0.171333  6.293407  1.035388  12.90735  18.672339  3.535024  -6.153866  8.816897  29.679583  7.722632  8.954155  -4.029533  -0.059583  0.127871  3.42041  -0.144431  0.357135  9.34911  -0.144431  0.357135  9.349109  -4.375743  21.826297  -0.691077  -123.151991  58.16269  -99.300437  -27.556728  -14.432209  95.578494  111.890863  26.439419  -18.44995  2.917578  -10.024312  12.22936  87.881378  20.493252  39.026145  13.452787  11.901664  -84.368542  43.065551  -5.572635  18.537969  9.815091  -0.828715  -3.142866  7.357162  -0.672244  -2.344514  
0.0  101.685394  0.0  -0.953677  -42.667858  -102.188323  29.832997  -32.816963  -33.942771  13.797529  11.461264  72.234137  -0.372254  6.349274  1.032129  11.714628  18.854084  3.67527  -5.685596  9.340044  29.302141  10.280869  9.619846  -4.233098  -0.078177  0.142184  3.403022  -0.193227  0.398747  9.301454  -0.193227  0.398747  9.301454  -4.491519  21.85606  -0.429757  -123.504146  58.134957  -99.441003  -27.416536  -14.628859  95.295753  111.607716  26.646605  -18.338193  2.666019  -9.985912  12.342513  86.369  21.856918  38.340201  15.484439  12.716402  -84.695161  42.83113  -5.929005  18.504885  9.764209  -0.901059  -2.79148  7.319073  -0.720634  -2.079798  
0.0  101.685394  0.0  -0.956341  -42.218014  -102.238248  29.652783  -32.970252  -33.567292  14.043678  11.273441  71.618994  -0.400804  6.343488  1.042456  10.578374  18.952272  3.955094  -5.234975  9.521166  28.603439  10.391714  9.389201  -4.300835  -0.147889  0.124063  3.352737  -0.386176  0.358836  9.163657  -0.386176  0.358836  9.163656  -4.321454  22.063424  -0.148113  -123.827079  58.12822  -99.53448  -27.131682  -15.235168  95.067181  111.577368  26.820859  -17.732206  2.62107  -9.852456  12.440682  86.623878  21.861932  38.269685  15.461314  13.460174  -84.987319  42.730752  -6.108638  18.384952  9.841161  -0.903737  -2.49924  7.37717  -0.718288  -1.860408  
0.0  101.685394  0.0  -1.168078  -41.616505  -101.969979  29.668964  -33.061244  -33.460835  14.089343  11.212183  70.880409  -0.283938  6.262256  1.096652  9.58407  18.862775  4.379469  -5.046044  9.451944  27.675393  10.226967  9.512028  -4.490625  -0.325854  0.073253  3.24659  -0.879029  0.243498  8.873095  -0.879029  0.243498  8.873094  -3.926561  22.220037  0.243872  -123.982092  57.972563  -100.003819  -26.90409  -15.88788  95.031961  111.761464  26.90576  -16.808168  2.85182  -9.694217  12.62277  85.033605  23.07584  37.406079  16.717355  14.061631  -85.541223  43.0226  -6.981656  17.75214  10.207256  -0.81974  -2.191963  7.65249  -0.651645  -1.63079  
0.0  101.685394  0.0  -1.375343  -41.207135  -101.715943  30.120575  -33.094373  -33.482797  13.87711  11.1479  70.097892  -0.294862  6.229214  1.153324  9.132849  18.535837  4.924079  -5.297325  9.440567  26.744718  9.931146  9.651293  -4.662322  -0.466314  0.015922  3.148653  -1.270072  0.104069  8.605859  -1.270072  0.104069  8.605859  -3.199697  22.585987  0.674464  -124.36436  57.96136  -100.246093  -26.713507  -16.543396  95.086916  112.013773  26.901261  -15.876037  3.270931  -9.415764  12.851715  85.247451  23.22366  37.509118  16.681812  14.595613  -85.962568  43.136439  -6.852136  17.665142  10.5339  -0.714014  -1.996199  7.898092  -0.57013  -1.485344  
0.0  101.685394  0.0  -1.611208  -40.124661  -101.104904  30.30166  -32.731882  -33.94195  13.419147  11.060283  69.328061  -0.467916  6.210453  1.216143  8.338464  18.412185  5.08821  -5.970423  9.460323  25.99876  9.82005  9.757348  -4.84317  -0.74173  -0.044295  3.008458  -2.029344  -0.028687  8.22379  -2.029344  -0.028687  8.22379  -2.372335  22.920385  1.043794  -124.718147  57.988251  -100.44918  -26.689448  -16.992351  95.162216  112.152556  26.199497  -14.950537  3.861895  -9.120206  12.982691  83.770891  24.228167  36.743646  17.111934  15.177429  -86.478818  43.598601  -7.656949  16.927298  10.956776  -0.582455  -1.888287  8.215806  -0.470886  -1.406295  
0.0  101.685394  0.0  -1.728374  -39.612392  -100.878253  31.024339  -32.469053  -34.232402  12.818667  11.075505  68.605237  -0.631581  6.155996  1.334486  8.433007  18.264215  5.535055  -6.780796  9.536815  25.363216  9.886774  9.777186  -4.999517  -0.869691  -0.080493  2.94357  -2.382958  -0.113882  8.047661  -2.382958  -0.113882  8.047661  -1.850382  23.176922  1.236827  -125.044528  58.081304  -100.584051  -26.736576  -17.143846  95.385388  112.248643  26.042259  -14.617997  4.315087  -8.947466  13.056126  83.851268  24.457469  36.901218  16.855488  15.805908  -86.658381  43.796682  -7.400086  16.96268  11.173657  -0.514739  -1.950217  8.378646  -0.421889  -1.453816  
0.0  101.685394  0.0  -1.771897  -38.434941  -100.427491  31.089991  -31.899704  -34.80344  12.285418  11.120831  68.062671  -0.865984  6.035976  1.462063  7.853029  18.290087  5.64865  -7.523106  9.735347  24.837379  9.950187  9.589553  -5.091084  -1.076149  -0.101949  2.855645  -2.948864  -0.151234  7.808393  -2.948864  -0.151234  7.808393  -1.426315  23.403929  1.315247  -125.492135  58.316259  -100.565166  -26.915546  -17.217342  95.489429  112.271187  25.868335  -14.527011  4.6638  -8.822861  13.01788  83.996173  24.657754  37.087455  16.421785  16.41843  -86.678273  44.059272  -7.079317  17.082383  11.127071  -0.560416  -2.151821  8.343388  -0.459684  -1.604278  
0.0  101.685394  0.0  -1.762862  -37.836895  -100.356045  31.308952  -31.609558  -35.102292  11.903092  11.160204  67.75137  -0.996655  5.928377  1.581461  8.031371  18.088694  6.000504  -8.163391  10.01605  24.484327  10.075577  9.412553  -5.108942  -1.145071  -0.106808  2.850328  -3.137524  -0.156608  7.794149  -3.137524  -0.156608  7.794149  -1.409311  23.439943  1.174596  -125.915832  58.456076  -100.74099  -27.096777  -17.166633  95.704963  112.271189  25.734791  -14.520956  4.897837  -8.771202  12.895702  84.114286  24.930841  37.210375  15.78229  16.845868  -86.584193  44.418215  -6.723635  17.205217  11.116618  -0.547474  -2.448756  8.335367  -0.455343  -1.82731  
